<svg width="360" height="120" viewBox="0 0 360 120" fill="none" xmlns="http://www.w3.org/2000/svg">
<rect width="360" height="120" rx="16" fill="black"/>
<path d="M7.99219 21.2578C11.3438 21.2578 13.6211 19.625 14.3838 16.6816H12.4072C11.7949 18.4541 10.2051 19.4746 8.00293 19.4746C4.94141 19.4746 2.99707 17.0469 2.99707 13.2441C2.99707 9.47363 4.96289 7.02441 7.99219 7.02441C10.1191 7.02441 11.8486 8.25977 12.4072 10.1719H14.3838C13.8145 7.19629 11.29 5.24121 7.99219 5.24121C3.74902 5.24121 1.00977 8.37793 1.00977 13.2441C1.00977 18.1533 3.7168 21.2578 7.99219 21.2578ZM20.3779 15.1133L25.5986 9.82812H23.2891L18.5195 14.7695H18.4336V9.82812H16.5859V21H18.4336V15.6289H18.5195L23.3428 21H25.749L20.3779 15.1133ZM30.6797 19.6035C29.3369 19.6035 28.4453 18.9053 28.4453 17.8418C28.4453 16.7891 29.3047 16.123 30.8086 16.0264L33.7949 15.8438V16.7568C33.7949 18.3682 32.4414 19.6035 30.6797 19.6035ZM30.2607 21.1934C31.7646 21.1934 33.1826 20.3555 33.8486 19.0771H33.8916V21H35.6641V13.2764C35.6641 11.0527 34.0098 9.63477 31.3887 9.63477C28.7461 9.63477 27.0918 11.1172 26.9629 13.0508H28.7676C29.0039 11.9551 29.9062 11.2783 31.3457 11.2783C32.8926 11.2783 33.7949 12.0947 33.7949 13.459V14.3936L30.5938 14.5762C28.0156 14.7266 26.5439 15.9297 26.5439 17.8418C26.5439 19.8506 28.0371 21.1934 30.2607 21.1934ZM46.7607 21V9.82812H44.9131V14.3184C44.3975 14.8984 43.4844 15.4141 42.0986 15.4141C40.5947 15.4141 39.8105 14.4795 39.8105 13.0186V9.82812H37.9629V13.04C37.9629 15.4248 39.3701 17.0469 42.0449 17.0469C43.2588 17.0469 44.1504 16.6924 44.752 16.1768H44.9131V21H46.7607ZM53.0879 19.6035C51.7451 19.6035 50.8535 18.9053 50.8535 17.8418C50.8535 16.7891 51.7129 16.123 53.2168 16.0264L56.2031 15.8438V16.7568C56.2031 18.3682 54.8496 19.6035 53.0879 19.6035ZM52.6689 21.1934C54.1729 21.1934 55.5908 20.3555 56.2568 19.0771H56.2998V21H58.0723V13.2764C58.0723 11.0527 56.418 9.63477 53.7969 9.63477C51.1543 9.63477 49.5 11.1172 49.3711 13.0508H51.1758C51.4121 11.9551 52.3145 11.2783 53.7539 11.2783C55.3008 11.2783 56.2031 12.0947 56.2031 13.459V14.3936L53.002 14.5762C50.4238 14.7266 48.9521 15.9297 48.9521 17.8418C48.9521 19.8506 50.4453 21.1934 52.6689 21.1934ZM68.6104 9.82812H59.5439V11.3643H63.1533V21H65.001V11.3643H68.6104V9.82812ZM74.2715 14.9307C75.7109 14.9307 76.6562 15.8223 76.6562 17.1973C76.6562 18.5615 75.7217 19.4639 74.2715 19.4639H72.1875V14.9307H74.2715ZM70.3398 21H74.3037C76.8604 21 78.5039 19.5283 78.5039 17.1973C78.5039 14.8662 76.8604 13.3945 74.3037 13.3945H72.1875V9.82812H70.3398V21ZM92.3076 21H94.166V9.82812H85.0566V21H86.9043V11.3643H92.3076V21ZM102.223 9.63477C100.601 9.63477 99.3008 10.4619 98.6133 11.7188H98.5703V9.82812H96.7979V24.7275H98.667V19.1846H98.71C99.376 20.4092 100.665 21.1934 102.266 21.1934C105.08 21.1934 107.003 18.916 107.003 15.4141C107.003 11.9121 105.069 9.63477 102.223 9.63477ZM101.857 19.5498C99.9453 19.5498 98.6562 17.9062 98.6562 15.4141C98.6562 12.9326 99.9453 11.2783 101.857 11.2783C103.845 11.2783 105.091 12.8896 105.091 15.4141C105.091 17.9492 103.845 19.5498 101.857 19.5498ZM110.924 21L116.51 12.6855H116.596V21H118.443V9.82812H116.596L111.01 18.1426H110.924V9.82812H109.076V21H110.924ZM124.051 16.0693L124.395 11.3643H128.197V21H130.045V9.82812H122.729L122.3 16.0264C122.16 18.0781 121.741 19.3779 120.635 19.3779C120.366 19.3779 120.162 19.3242 120.065 19.292V20.9785C120.194 21.0322 120.409 21.0967 120.731 21.0967C123.084 21.0967 123.825 19.1523 124.051 16.0693ZM136.383 19.6035C135.04 19.6035 134.148 18.9053 134.148 17.8418C134.148 16.7891 135.008 16.123 136.512 16.0264L139.498 15.8438V16.7568C139.498 18.3682 138.145 19.6035 136.383 19.6035ZM135.964 21.1934C137.468 21.1934 138.886 20.3555 139.552 19.0771H139.595V21H141.367V13.2764C141.367 11.0527 139.713 9.63477 137.092 9.63477C134.449 9.63477 132.795 11.1172 132.666 13.0508H134.471C134.707 11.9551 135.609 11.2783 137.049 11.2783C138.596 11.2783 139.498 12.0947 139.498 13.459V14.3936L136.297 14.5762C133.719 14.7266 132.247 15.9297 132.247 17.8418C132.247 19.8506 133.74 21.1934 135.964 21.1934ZM151.132 11.3643V9.82812H143.945V21H145.793V11.3643H151.132ZM154.097 25.1787C156.116 25.1787 157.04 24.3945 157.996 21.7842L162.39 9.82812H160.424L157.33 19.1309H157.298L154.204 9.82812H152.206L156.331 21.0107L156.073 21.7949C155.644 23.0947 155.063 23.5996 154.021 23.5996C153.785 23.5996 153.495 23.5889 153.291 23.5459V25.1143C153.495 25.1572 153.871 25.1787 154.097 25.1787ZM170.414 21L176 12.6855H176.086V21H177.934V9.82812H176.086L170.5 18.1426H170.414V9.82812H168.566V21H170.414ZM184.282 21.1934C186.903 21.1934 188.644 19.7861 188.644 17.7021C188.644 16.4131 187.881 15.4678 186.409 15.1455V15.0596C187.526 14.8018 188.257 13.792 188.257 12.6533C188.257 10.8594 186.871 9.63477 184.325 9.63477C181.962 9.63477 180.351 10.8057 180.114 12.6533H181.93C182.08 11.7617 183.004 11.1924 184.325 11.1924C185.765 11.1924 186.431 11.8691 186.431 12.8037C186.431 13.8994 185.7 14.4365 184.282 14.4365H182.606V15.9619H184.282C185.969 15.9619 186.807 16.5312 186.807 17.7881C186.807 18.873 185.904 19.6465 184.282 19.6465C182.896 19.6465 181.973 19.0771 181.758 18.0996H179.867C180.061 19.9902 181.833 21.1934 184.282 21.1934Z" transform="translate(112 21)" fill="white"/>
<path d="M16.0573 44.6064C25.154 44.6064 30.7917 38.1152 30.7917 27.7832C30.7917 17.5186 25.0866 10.9824 16.0573 10.9824C8.91473 10.9824 3.34441 15.3174 2.26629 21.7861H7.32C8.37566 17.9453 11.8571 15.4521 16.0573 15.4521C21.2907 15.4521 25.0192 19.2705 25.5134 25.3574H11.7448V29.5801H25.5807C25.2663 36.0938 21.4929 40.1367 16.0348 40.1367C11.6999 40.1367 8.46551 38.0254 7.32 34.4092H2.26629C3.65887 40.833 8.77996 44.6064 16.0573 44.6064ZM51.6795 44H56.531V20.3711H36.3836V44H41.2127V24.2119H51.6795V44ZM69.827 33.2412L70.4784 24.2119H77.7557V44H82.5848V20.3711H66.2108L65.4022 33.0391C65.1327 37.1494 64.3241 39.8896 62.033 39.8896C61.4266 39.8896 60.9774 39.7773 60.7528 39.71V43.9775C61.0448 44.0898 61.6063 44.2246 62.3924 44.2246C67.6932 44.2246 69.3778 39.9346 69.827 33.2412ZM113.265 44.6064C120.542 44.6064 125.551 40.833 126.943 34.4092H121.89C120.744 38.0254 117.622 40.1367 113.287 40.1367C107.335 40.1367 103.562 35.3525 103.562 27.7832C103.562 20.2812 107.38 15.4521 113.265 15.4521C117.465 15.4521 120.834 17.9453 121.89 21.7861H126.943C125.865 15.3174 120.407 10.9824 113.265 10.9824C104.213 10.9824 98.418 17.5186 98.418 27.7832C98.418 38.1152 104.168 44.6064 113.265 44.6064ZM150.257 20.3711H130.604V24.2119H138.016V44H142.845V24.2119H150.257V20.3711ZM164.451 44.4492C171.212 44.4492 175.659 39.7998 175.659 32.1855C175.659 24.5938 171.19 19.9443 164.451 19.9443C157.713 19.9443 153.243 24.5938 153.243 32.1855C153.243 39.7998 157.691 44.4492 164.451 44.4492ZM164.451 40.4512C160.655 40.4512 158.185 37.4414 158.185 32.1855C158.185 26.9521 160.655 23.9424 164.451 23.9424C168.247 23.9424 170.718 26.9521 170.718 32.1855C170.718 37.4414 168.27 40.4512 164.451 40.4512ZM193.088 19.9893C189.674 19.9893 186.956 21.7188 185.564 24.4365H185.474V20.3711H180.78V51.8164H185.631V40.1143H185.743C187.091 42.7422 189.786 44.4043 193.178 44.4043C199.108 44.4043 203.038 39.665 203.038 32.1855C203.038 24.7061 199.085 19.9893 193.088 19.9893ZM191.808 40.2939C188.079 40.2939 185.609 37.1045 185.609 32.1855C185.609 27.3115 188.102 24.0771 191.808 24.0771C195.649 24.0771 198.052 27.2441 198.052 32.1855C198.052 37.1494 195.649 40.2939 191.808 40.2939Z" transform="translate(112 46)" fill="white"/>
<path d="M58.7425 55.4758C57.6652 57.9629 56.3901 60.2522 54.9128 62.357C52.899 65.2263 51.2502 67.2125 49.9795 68.3154C48.0097 70.1257 45.8992 71.0529 43.6392 71.1056C42.0167 71.1056 40.0601 70.6443 37.7825 69.7083C35.4974 68.7768 33.3975 68.3154 31.4774 68.3154C29.4636 68.3154 27.3038 68.7768 24.9937 69.7083C22.6801 70.6443 20.8162 71.132 19.3912 71.1803C17.2239 71.2726 15.0638 70.3191 12.9075 68.3154C11.5313 67.1158 9.80991 65.0594 7.74776 62.1461C5.53525 59.0351 3.71625 55.4275 2.29122 51.3146C0.765059 46.8722 0 42.5704 0 38.4057C0 33.635 1.03151 29.5204 3.09761 26.0723C4.72138 23.3027 6.88158 21.118 9.58523 19.5142C12.2889 17.9103 15.2102 17.093 18.3561 17.0407C20.0775 17.0407 22.3349 17.5729 25.1401 18.6186C27.9374 19.668 29.7335 20.2001 30.521 20.2001C31.1098 20.2001 33.1051 19.5779 36.4876 18.3374C39.6864 17.187 42.386 16.7107 44.5977 16.8984C50.5906 17.3817 55.0931 19.7427 58.0873 23.9961C52.7275 27.2416 50.0762 31.7873 50.129 37.6187C50.1773 42.1609 51.8262 45.9407 55.0667 48.9418C56.5352 50.3348 58.1753 51.4113 60 52.1759C59.6043 53.3227 59.1866 54.4213 58.7425 55.4758ZM44.9978 1.42413C44.9978 4.98426 43.6963 8.30835 41.1022 11.3851C37.9716 15.0427 34.185 17.1563 30.0787 16.8228C30.0264 16.3957 29.996 15.9462 29.996 15.4738C29.996 12.0561 31.4848 8.39843 34.1287 5.40781C35.4486 3.8936 37.1274 2.63457 39.1631 1.63021C41.1945 0.640834 43.1159 0.093682 44.923 0C44.9758 0.475924 44.9978 0.951892 44.9978 1.42408V1.42413Z" transform="translate(26 23)" fill="white"/>
</svg>
